<?xml version="1.0" encoding="UTF-8"?>
<svg width="24px" height="24px" viewBox="0 0 24 24" version="1.1" xmlns="http://www.w3.org/2000/svg" xmlns:xlink="http://www.w3.org/1999/xlink">
    <title>Visual/Icons/Alert</title>
    <defs>
        <path d="M12,15.2973333 C12.9142154,15.2973333 13.6553333,16.0384513 13.6553333,16.9526667 C13.6553333,17.866882 12.9142154,18.608 12,18.608 C11.0857846,18.608 10.3446667,17.866882 10.3446667,16.9526667 C10.3446667,16.0384513 11.0857846,15.2973333 12,15.2973333 Z M13.3493333,5.76 L13.3493333,14.2893333 L10.65,14.2893333 L10.65,5.76 L13.3493333,5.76 Z M12,2 C6.47666667,2 2,6.47733333 2,12 C2,17.5233333 6.47666667,22 12,22 C17.5233333,22 22,17.5233333 22,12 C22,6.47733333 17.5233333,2 12,2 Z M12,20.1253333 C7.51133333,20.1253333 3.87533333,16.4866667 3.87533333,12 C3.87533333,7.51266667 7.51133333,3.87533333 12,3.87533333 C16.488,3.87533333 20.1233333,7.51266667 20.1233333,12 C20.1233333,16.4866667 16.488,20.1253333 12,20.1253333 Z" id="path-1"></path>
    </defs>
    <g id="Visual/Icons/Alert" stroke="none" stroke-width="1" fill="none" fill-rule="evenodd">
        <mask id="mask-2" fill="white">
            <use xlink:href="#path-1"></use>
        </mask>
        <use id="🎨-Icon-Color" fill="#333333" xlink:href="#path-1"></use>
    </g>
</svg>