<?xml version="1.0" encoding="UTF-8"?>
<svg width="24px" height="24px" viewBox="0 0 24 24" version="1.1" xmlns="http://www.w3.org/2000/svg" xmlns:xlink="http://www.w3.org/1999/xlink">
    <title>Visual/Icons/Box</title>
    <defs>
        <polygon id="path-1" points="0 3.65847004 0 12.1439715 7.83333333 16 15.6666667 12.0734548 15.6666667 3.65847004 7.73206885 0"></polygon>
    </defs>
    <g id="Visual/Icons/Box" stroke="none" stroke-width="1" fill="none" fill-rule="evenodd">
        <g id="BD-National-Box" transform="translate(4.000000, 4.000000)">
            <mask id="mask-2" fill="white">
                <use xlink:href="#path-1"></use>
            </mask>
            <use id="Mask" fill="#333333" xlink:href="#path-1"></use>
            <path d="M7.735,-0.333333333 L16,3.57896472 L16,12.470755 L7.78666667,16.6666667 L-0.666666667,12.5424992 L-0.666666667,3.57896472 L7.735,-0.333333333 Z M0.125555556,4.12489285 L0.125555556,12.0408506 L7.41944444,15.5994725 L7.41944444,7.42512364 L0.125555556,4.12489285 Z M15.0983333,4.03857567 L12.9255556,5.10352786 L12.9255556,8.95080778 L10.6511111,10.1272997 L10.6511111,6.21836466 L8.21166667,7.41391362 L8.21166667,15.5540719 L15.2077778,11.979756 L15.2077778,4.09014177 L15.0983333,4.03857567 Z M3.44833333,2.54259809 L0.963888889,3.69947247 L7.80722222,6.7239367 L10.0866667,5.6068579 L3.44833333,2.54259809 Z M7.66722222,0.578041543 L5.67833333,1.50454995 L12.3272222,4.50883614 L14.1688889,3.60586878 L7.66722222,0.578041543 Z" id="🎨-Icon-Color" fill="#FFFFFF" mask="url(#mask-2)"></path>
        </g>
    </g>
</svg>