<?xml version="1.0" encoding="UTF-8"?>
<svg width="24px" height="24px" viewBox="0 0 24 24" version="1.1" xmlns="http://www.w3.org/2000/svg" xmlns:xlink="http://www.w3.org/1999/xlink">
    <title>Visual/Icons/Calendar</title>
    <defs>
        <path d="M21.3716931,6.28533333 L21.3716931,20.5706667 C21.3716931,20.9573333 21.2314815,21.2926667 20.952381,21.5753333 C20.672619,21.8586667 20.3412698,22 19.9589947,22 L4.41269841,22 C4.0297619,22 3.6984127,21.8586667 3.41931217,21.576 C3.13955026,21.2933333 3,20.958 3,20.5713333 L3,6.28533333 C3,5.89866667 3.13955026,5.56333333 3.41931217,5.28066667 C3.69907407,4.998 4.03042328,4.85666667 4.41269841,4.85666667 L5.8260582,4.85666667 L5.8260582,3.78533333 C5.8260582,3.294 5.99867725,2.874 6.34457672,2.524 C6.69113757,2.17466667 7.10714286,2 7.59325397,2 L8.29960317,2 C8.78571429,2 9.20171958,2.17466667 9.54761905,2.52466667 C9.89351852,2.87466667 10.0661376,3.29466667 10.0661376,3.786 L10.0661376,4.85733333 L14.3062169,4.85733333 L14.3062169,3.78533333 C14.3062169,3.294 14.478836,2.874 14.8247354,2.524 C15.1706349,2.17466667 15.5866402,2 16.0727513,2 L16.7791005,2 C17.2652116,2 17.6805556,2.17466667 18.0271164,2.52466667 C18.3730159,2.87466667 18.5456349,3.29466667 18.5456349,3.786 L18.5456349,4.85733333 L19.9589947,4.85733333 C20.3412698,4.85733333 20.672619,4.99866667 20.952381,5.28133333 C21.2321429,5.564 21.3716931,5.89866667 21.3716931,6.28533333 Z M4.41269841,12.3566667 L7.59259259,12.3566667 L7.59259259,9.142 L4.41269841,9.142 L4.41269841,12.3566667 Z M4.41269841,16.6426667 L7.59259259,16.6426667 L7.59259259,13.0713333 L4.41269841,13.0713333 L4.41269841,16.6426667 Z M4.41269841,20.5713333 L7.59259259,20.5713333 L7.59259259,17.3566667 L4.41269841,17.3566667 L4.41269841,20.5713333 Z M8.65277778,7 L8.65277778,3.78533333 C8.65277778,3.68866667 8.61772487,3.60533333 8.54761905,3.53466667 C8.4781746,3.464 8.39484127,3.42866667 8.2989418,3.42866667 L7.59325397,3.42866667 C7.4973545,3.42866667 7.41468254,3.464 7.34457672,3.53466667 C7.2744709,3.60533333 7.23941799,3.68866667 7.23941799,3.78533333 L7.23941799,7 C7.23941799,7.09666667 7.2744709,7.18066667 7.34457672,7.25066667 C7.41402116,7.32133333 7.4973545,7.35666667 7.59325397,7.35666667 L8.29960317,7.35666667 C8.39550265,7.35666667 8.4781746,7.32133333 8.54828042,7.25066667 C8.61772487,7.18066667 8.65277778,7.09666667 8.65277778,7 Z M8.2989418,12.3566667 L11.8320106,12.3566667 L11.8320106,9.142 L8.2989418,9.142 L8.2989418,12.3566667 Z M8.2989418,16.6426667 L11.8320106,16.6426667 L11.8320106,13.0713333 L8.2989418,13.0713333 L8.2989418,16.6426667 Z M8.2989418,20.5713333 L11.8320106,20.5713333 L11.8320106,17.3566667 L8.2989418,17.3566667 L8.2989418,20.5713333 Z M12.5390212,12.3566667 L16.0720899,12.3566667 L16.0720899,9.142 L12.5390212,9.142 L12.5390212,12.3566667 Z M12.5390212,16.6426667 L16.0720899,16.6426667 L16.0720899,13.0713333 L12.5390212,13.0713333 L12.5390212,16.6426667 Z M12.5390212,20.5713333 L16.0720899,20.5713333 L16.0720899,17.3566667 L12.5390212,17.3566667 L12.5390212,20.5713333 Z M17.1322751,7 L17.1322751,3.78533333 C17.1322751,3.68866667 17.0972222,3.60533333 17.0271164,3.53466667 C16.9570106,3.464 16.8743386,3.42866667 16.7784392,3.42866667 L16.0720899,3.42866667 C15.9761905,3.42866667 15.8935185,3.464 15.8234127,3.53466667 C15.7533069,3.60533333 15.718254,3.68866667 15.718254,3.78533333 L15.718254,7 C15.718254,7.09666667 15.7533069,7.18066667 15.8234127,7.25066667 C15.8928571,7.32133333 15.9761905,7.35666667 16.0720899,7.35666667 L16.7784392,7.35666667 C16.8743386,7.35666667 16.9570106,7.32133333 17.0271164,7.25066667 C17.0972222,7.18066667 17.1322751,7.09666667 17.1322751,7 Z M16.7784392,12.3566667 L19.9583333,12.3566667 L19.9583333,9.142 L16.7784392,9.142 L16.7784392,12.3566667 Z M16.7784392,16.6426667 L19.9583333,16.6426667 L19.9583333,13.0713333 L16.7784392,13.0713333 L16.7784392,16.6426667 Z M16.7784392,20.5713333 L19.9583333,20.5713333 L19.9583333,17.3566667 L16.7784392,17.3566667 L16.7784392,20.5713333 Z" id="path-1"></path>
    </defs>
    <g id="Visual/Icons/Calendar" stroke="none" stroke-width="1" fill="none" fill-rule="evenodd">
        <mask id="mask-2" fill="white">
            <use xlink:href="#path-1"></use>
        </mask>
        <use id="🎨-Icon-Color" fill="#333333" xlink:href="#path-1"></use>
    </g>
</svg>