<?xml version="1.0" encoding="UTF-8"?>
<svg width="24px" height="24px" viewBox="0 0 24 24" version="1.1" xmlns="http://www.w3.org/2000/svg" xmlns:xlink="http://www.w3.org/1999/xlink">
    <title>Visual/Icons/Photo Center</title>
    <defs>
        <path d="M20.7993333,6.88266667 L17.9993333,6.88266667 C17.9993333,6.88266667 16.804,6.48933333 16.4,6.088 C15.9953333,5.686 15.6,5.29333333 15.6,5.29333333 C15.6,5.29333333 15.202,4.5 14.4,4.5 L11.9993333,4.5 L9.59933333,4.5 C8.79666667,4.5 8.39933333,5.29333333 8.39933333,5.29333333 C8.39933333,5.29333333 8.00466667,5.68533333 7.6,6.08733333 C7.194,6.48933333 5.99933333,6.88266667 5.99933333,6.88266667 L3.19933333,6.88266667 C2.53733333,6.88266667 2,7.416 2,8.074 L2,18.008 C2,18.666 2.53733333,19.1993333 3.19933333,19.1993333 L20.7993333,19.1993333 C21.4626667,19.1993333 22,18.666 22,18.008 L22,8.074 C22,7.416 21.4626667,6.88266667 20.7993333,6.88266667 Z M11.9993333,17.6106667 C9.34866667,17.6106667 7.20066667,15.476 7.20066667,12.8433333 C7.20066667,10.21 9.34933333,8.07466667 11.9993333,8.07466667 C14.6513333,8.07466667 16.7993333,10.21 16.7993333,12.8433333 C16.7993333,15.4753333 14.6513333,17.6106667 11.9993333,17.6106667 Z M11.9993333,9.26666667 C13.9875584,9.26666667 15.5993333,10.8676964 15.5993333,12.8426667 C15.5993333,14.8176369 13.9875584,16.4186667 11.9993333,16.4186667 C10.0111082,16.4186667 8.39933333,14.8176369 8.39933333,12.8426667 C8.39933333,10.8676964 10.0111082,9.26666667 11.9993333,9.26666667 Z M17.6,7.87 C18.1553333,7.87 18.6053333,8.31666667 18.6053333,8.86866667 C18.6053333,9.42066667 18.1553333,9.86866667 17.6,9.86866667 C17.0433333,9.86866667 16.5926667,9.42066667 16.5926667,8.86866667 C16.5926667,8.31666667 17.0433333,7.87 17.6,7.87 Z M5.04,5.85333333 C5.482,5.85333333 5.83933333,6.20866667 5.84,6.648 L5.84,6.648 L3.44066667,6.648 C3.44066667,6.20866667 3.79866667,5.85333333 4.24,5.85333333 L4.24,5.85333333 Z" id="path-1"></path>
    </defs>
    <g id="Visual/Icons/Photo-Center" stroke="none" stroke-width="1" fill="none" fill-rule="evenodd">
        <mask id="mask-2" fill="white">
            <use xlink:href="#path-1"></use>
        </mask>
        <use id="🎨-Icon-Color" fill="#333333" xlink:href="#path-1"></use>
    </g>
</svg>