<?xml version="1.0" encoding="UTF-8"?>
<svg width="24px" height="24px" viewBox="0 0 24 24" version="1.1" xmlns="http://www.w3.org/2000/svg" xmlns:xlink="http://www.w3.org/1999/xlink">
    <title>Visual/Icons/Car Wash</title>
    <defs>
        <path d="M21.5573333,12.65 C21.5573333,12.0573333 21.0726667,11.5733333 20.482,11.5733333 L19.1953333,11.5733333 L18.2633333,9.14866667 C18.0313333,8.546 17.3333333,8.358 16.7126667,8.18066667 C16.7126667,8.18066667 15.1046667,7.72133333 11.7793333,7.72133333 C8.45533333,7.72133333 6.846,8.18066667 6.846,8.18066667 C6.22466667,8.358 5.528,8.54533333 5.29666667,9.148 L4.36466667,11.5726667 L3.07533333,11.5726667 C2.484,11.5726667 2,12.0573333 2,12.6493333 C2,13.2353333 2.47666667,13.7146667 3.06133333,13.722 C2.9,14.3066667 2.78266667,15.0393333 2.78266667,15.5446667 L2.78266667,20.6293333 C2.78266667,21.3833333 3.39866667,22 4.152,22 C4.90466667,22 5.52066667,21.3833333 5.52066667,20.63 L5.52066667,19.8473333 L18.0373333,19.8473333 L18.0373333,20.63 C18.0373333,21.3833333 18.6533333,22 19.406,22 C20.1586667,22 20.7746667,21.3833333 20.7746667,20.63 L20.7746667,15.5453333 C20.7746667,15.04 20.6586667,14.3066667 20.4973333,13.7226667 C21.082,13.714 21.5573333,13.236 21.5573333,12.65 Z M5.46066667,12.9673333 L6.55866667,9.98466667 C6.634,9.782 6.87133333,9.61733333 7.086,9.61733333 L16.4726667,9.61733333 C16.6873333,9.61733333 16.9246667,9.782 16.9986667,9.984 L18.0973333,12.9673333 C18.1713333,13.1693333 18.056,13.334 17.8406667,13.334 L5.716,13.334 C5.50133333,13.334 5.38533333,13.1693333 5.46066667,12.9673333 Z M5.42333333,16.5233333 C4.82933333,16.5233333 4.348,16.04 4.348,15.448 C4.348,14.854 4.83,14.3726667 5.42333333,14.3726667 C6.01733333,14.3726667 6.49866667,14.8546667 6.49866667,15.448 C6.49866667,16.04 6.01666667,16.5233333 5.42333333,16.5233333 Z M18.1353333,14.3726667 C18.7293333,14.3726667 19.2106667,14.8533333 19.2106667,15.448 C19.2106667,16.0413333 18.7293333,16.5233333 18.1353333,16.5233333 C17.5413333,16.5233333 17.06,16.0413333 17.06,15.448 C17.06,14.8526667 17.542,14.3726667 18.1353333,14.3726667 Z M15.914,2 C15.914,2 17.0966667,3.77733333 17.0960003,4.43 C17.0960003,5.082 16.5673333,5.61066667 15.914,5.61066667 C15.262,5.61066667 14.7333333,5.082 14.7326667,4.43 C14.7326667,3.77733333 15.914,2 15.914,2 Z M11.7786667,2 C11.7786667,2 12.9593333,3.77733333 12.9593333,4.43 C12.9593333,5.082 12.432,5.61066667 11.7786667,5.61066667 C11.126,5.61066667 10.598,5.082 10.598,4.43 C10.598,3.77733333 11.7786667,2 11.7786667,2 Z M7.64333333,2 C7.64333333,2 8.824,3.77733333 8.824,4.43 C8.824,5.082 8.29666667,5.61066667 7.64333333,5.61066667 C6.99066667,5.61066667 6.462,5.082 6.462,4.43 C6.462,3.77733333 7.64333333,2 7.64333333,2 Z" id="path-1"></path>
    </defs>
    <g id="Visual/Icons/Car-Wash" stroke="none" stroke-width="1" fill="none" fill-rule="evenodd">
        <mask id="mask-2" fill="white">
            <use xlink:href="#path-1"></use>
        </mask>
        <use id="🎨-Icon-Color" fill="#333333" xlink:href="#path-1"></use>
    </g>
</svg>