<?xml version="1.0" encoding="UTF-8"?>
<svg width="24px" height="24px" viewBox="0 0 24 24" version="1.1" xmlns="http://www.w3.org/2000/svg" xmlns:xlink="http://www.w3.org/1999/xlink">
    <title>Visual/Icons/Checkbox/Selected</title>
    <defs>
        <path d="M18.88,2 L5.12,2 C3.39666667,2 2,3.39666667 2,5.12 L2,5.12 L2,18.88 C2,20.6033333 3.39666667,22 5.12,22 L18.88,22 C20.6033333,22 22,20.6033333 22,18.88 L22,18.88 L22,5.12 C22,3.39666667 20.6033333,2 18.88,2 Z M18.2166667,9.45733333 L11.12,16.56 C10.8453333,16.8473333 10.3893333,16.8573333 10.102,16.582 C10.0946667,16.5746667 6,12.48 6,12.48 C5.71266667,12.2046667 5.70266667,11.7493333 5.978,11.462 C5.98533333,11.4546667 7.2,10.24 7.2,10.24 C7.47466667,9.95266667 7.93066667,9.94266667 8.218,10.218 C8.22533333,10.2253333 10.64,12.64 10.64,12.64 L16,7.28 C16.2753333,6.99266667 16.6993333,6.94466667 16.9813333,7.22533333 C17.0466667,7.29 18.21,8.46 18.21,8.46 C18.5273333,8.81 18.4866667,9.182 18.2166667,9.45733333 Z" id="path-1"></path>
    </defs>
    <g id="Visual/Icons/Checkbox/Selected" stroke="none" stroke-width="1" fill="none" fill-rule="evenodd">
        <mask id="mask-2" fill="white">
            <use xlink:href="#path-1"></use>
        </mask>
        <use id="🎨-Icon-Color" fill="#333333" xlink:href="#path-1"></use>
    </g>
</svg>