<?xml version="1.0" encoding="UTF-8"?>
<svg width="24px" height="24px" viewBox="0 0 24 24" version="1.1" xmlns="http://www.w3.org/2000/svg" xmlns:xlink="http://www.w3.org/1999/xlink">
    <title>Visual/Icons/Checkmark</title>
    <defs>
        <path d="M21.6565521,8.27378433 L10.4420537,19.3536581 C10.0073936,19.8018284 9.28740438,19.8169648 8.83341119,19.3878797 C8.82141137,19.3766919 2.35084178,12.9884562 2.35084178,12.9884562 C1.89684859,12.5593711 1.88151548,11.8486165 2.31617563,11.4004463 C2.32750879,11.3886004 4.24747999,9.49391299 4.24747999,9.49391299 C4.68214013,9.04574275 5.40212933,9.03060631 5.85612252,9.45969147 C5.86812234,9.47087927 9.68339843,13.2378784 9.68339843,13.2378784 L18.153938,4.8772989 C18.5885982,4.42912866 19.2585881,4.35476268 19.7045814,4.79240321 C19.8072465,4.89375155 21.6458856,6.71867968 21.6458856,6.71867968 C22.1478781,7.26359151 22.0838791,7.84404107 21.6565521,8.27378433 Z" id="path-1"></path>
    </defs>
    <g id="Visual/Icons/Checkmark" stroke="none" stroke-width="1" fill="none" fill-rule="evenodd">
        <mask id="mask-2" fill="white">
            <use xlink:href="#path-1"></use>
        </mask>
        <use id="🎨-Icon-Color" fill="#333333" xlink:href="#path-1"></use>
    </g>
</svg>