<?xml version="1.0" encoding="UTF-8"?>
<svg width="24px" height="24px" viewBox="0 0 24 24" version="1.1" xmlns="http://www.w3.org/2000/svg" xmlns:xlink="http://www.w3.org/1999/xlink">
    <title>Visual/Icons/Checkbox/Unselected</title>
    <defs>
        <path d="M18.88,22 L5.12,22 C3.39666667,22 2,20.6033333 2,18.88 L2,18.88 L2,5.12 C2,3.39666667 3.39666667,2 5.12,2 L5.12,2 L18.88,2 C20.6033333,2 22,3.39666667 22,5.12 L22,5.12 L22,18.88 C22,20.6033333 20.6033333,22 18.88,22 L18.88,22 Z M5.12,3.28 C4.104,3.28 3.28,4.104 3.28,5.12 L3.28,5.12 L3.28,18.88 C3.28,19.896 4.104,20.72 5.12,20.72 L5.12,20.72 L18.88,20.72 C19.896,20.72 20.72,19.896 20.72,18.88 L20.72,18.88 L20.72,5.12 C20.72,4.104 19.896,3.28 18.88,3.28 L18.88,3.28 L5.12,3.28 Z" id="path-1"></path>
    </defs>
    <g id="Visual/Icons/Checkbox/Unselected" stroke="none" stroke-width="1" fill="none" fill-rule="evenodd">
        <mask id="mask-2" fill="white">
            <use xlink:href="#path-1"></use>
        </mask>
        <use id="🎨-Icon-Color" fill="#333333" xlink:href="#path-1"></use>
    </g>
</svg>