<?xml version="1.0" encoding="UTF-8"?>
<svg width="24px" height="24px" viewBox="0 0 24 24" version="1.1" xmlns="http://www.w3.org/2000/svg" xmlns:xlink="http://www.w3.org/1999/xlink">
    <title>Visual/Icons/Delivery Truck</title>
    <defs>
        <path d="M5.66654445,14.8917953 C6.50518316,14.8917953 7.18716043,15.580845 7.18716043,16.4281807 C7.18716043,17.2761899 6.50518316,17.9652396 5.66654445,17.9652396 C4.82790574,17.9652396 4.14592847,17.2755164 4.14592847,16.4281807 C4.14592847,15.580845 4.82790574,14.8917953 5.66654445,14.8917953 Z M18.4774508,14.8917953 C19.3160895,14.8917953 19.9974001,15.580845 19.9974001,16.4281807 C19.9974001,17.2761899 19.3160895,17.9652396 18.4774508,17.9652396 C17.6381454,17.9652396 16.9561681,17.2755164 16.9561681,16.4281807 C16.9561681,15.580845 17.6381454,14.8917953 18.4774508,14.8917953 Z M5.66654445,15.5653531 C5.19589347,15.5653531 4.81257291,15.9519753 4.81257291,16.4281807 C4.81257291,16.904386 5.19589347,17.2916818 5.66654445,17.2916818 C6.13719543,17.2916818 6.52051598,16.9037125 6.52051598,16.4281807 C6.52051598,15.9526489 6.13719543,15.5653531 5.66654445,15.5653531 Z M18.4774508,15.5653531 C18.0061331,15.5653531 17.6228126,15.9519753 17.6228126,16.4281807 C17.6228126,16.904386 18.0061331,17.2916818 18.4774508,17.2916818 C18.9481017,17.2916818 19.3307556,16.9037125 19.3307556,16.4281807 C19.3307556,15.9526489 18.9481017,15.5653531 18.4774508,15.5653531 Z M14.3822539,6.5 C14.7835739,6.5 15.1102297,6.88392794 15.1102297,7.35676552 L15.1102297,7.35676552 L15.1102297,8.93962633 L17.7521416,8.93962633 C17.9481351,8.93962633 18.0447985,9.06692876 18.1334622,9.25013648 C18.19946,9.38619515 19.2107596,11.2014334 19.2767574,11.3051613 C19.3434219,11.4102363 19.39942,11.44122 19.4454185,11.470183 C19.5187494,11.517332 21.2860238,12.2542042 21.330689,12.2750845 C21.3740209,12.2959648 21.6173461,12.379486 21.7060098,12.5034206 C21.7580081,12.5754913 21.7653412,12.8543442 21.7653412,12.9082289 L21.7653412,12.9082289 L21.7653412,15.4165581 C21.89867,15.4488889 21.9993334,15.5633937 22,15.7082086 L22,15.7082086 L22,16.1150375 C22,16.2841005 21.8646712,16.4208328 21.6980101,16.4208328 L21.6980101,16.4208328 L20.6667111,16.4208328 C20.668711,16.3864813 20.6720443,16.3528034 20.6720443,16.3191255 C20.6720443,16.1796991 20.6573781,16.0436404 20.6327122,15.9109495 C20.6020466,15.7479485 20.548715,15.5930302 20.4847172,15.4448475 C20.1487284,14.6628469 19.3840872,14.1118766 18.4861171,14.1118766 C17.4174861,14.1118766 16.528849,14.8878152 16.3327419,15.928659 C16.3074094,16.0613499 16.2828572,16.1803726 16.2828572,16.3197991 C16.2828572,16.353477 16.2861905,16.3878284 16.2875237,16.4215063 L16.2875237,16.4215063 L7.87913736,16.4215063 L7.87913736,16.4215063 L7.88380387,16.3197991 C7.88380387,16.2719765 7.88247058,16.2248274 7.88180394,16.1776784 C7.82047265,15.0245475 6.88450385,14.1071617 5.72854238,14.1071617 C4.2739242,14.1071617 3.68061065,15.4024134 3.68061065,15.4024134 C3.60461318,15.5687822 3.55594814,15.7479485 3.52328256,15.9331769 C3.50061665,16.0598058 3.48061731,16.1871082 3.48061731,16.3204727 C3.48061731,16.3541505 3.48461718,16.388502 3.48595047,16.4221799 L3.48595047,16.4221799 L2.30265658,16.4221799 C2.13532882,16.4221799 2,16.2854476 2,16.1163846 L2,16.1163846 L2,15.7082086 C2,15.5606995 2.10532982,15.4435004 2.24265858,15.4145374 L2.24265858,15.4145374 L2.24265858,7.35676552 C2.24265858,6.88392794 2.56931436,6.5 2.97063431,6.5 L2.97063431,6.5 Z M17.5448152,9.72634184 L15.7562081,9.72634184 C15.6842105,9.72634184 15.6248792,9.78561492 15.6248792,9.85970628 L15.6248792,9.85970628 L15.6248792,11.505208 C15.6248792,11.5779522 15.6842105,11.6372253 15.7562081,11.6372253 L15.7562081,11.6372253 L18.3261225,11.6372253 C18.4654512,11.633184 18.4607846,11.5146378 18.4427852,11.4735508 C18.3874538,11.348269 17.7174761,9.94188033 17.6761441,9.85970628 C17.6361455,9.7795529 17.6174794,9.72634184 17.5448152,9.72634184 L17.5448152,9.72634184 Z" id="path-1"></path>
    </defs>
    <g id="Visual/Icons/Delivery-Truck" stroke="none" stroke-width="1" fill="none" fill-rule="evenodd">
        <mask id="mask-2" fill="white">
            <use xlink:href="#path-1"></use>
        </mask>
        <use id="🎨-Icon-Color" fill="#333333" xlink:href="#path-1"></use>
    </g>
</svg>