<?xml version="1.0" encoding="UTF-8"?>
<svg width="24px" height="24px" viewBox="0 0 24 24" version="1.1" xmlns="http://www.w3.org/2000/svg" xmlns:xlink="http://www.w3.org/1999/xlink">
    <title>Visual/Icons/Food Court</title>
    <defs>
        <path d="M6.47954734,2.0169246 C6.87229375,1.99359156 7.27968494,1.99492488 7.67110001,2.01759125 L7.67110001,2.01759125 L7.67110001,8.73883783 C7.67110001,9.09283326 7.9387001,9.37882957 8.26754201,9.37882957 C8.59704959,9.37882957 8.86331835,9.09283326 8.86331835,8.73883783 L8.86331835,8.73883783 L8.86331835,2.17825585 C9.56360517,2.33692047 10.0555367,2.60358369 10.0555367,2.97957884 L10.0555367,2.97957884 L10.6506473,9.8981562 C10.6506473,11.6208006 9.65480221,13.0834484 8.26754201,13.6281081 L8.26754201,13.6281081 L8.26754201,22 L6.15736215,22 L6.15736215,13.7214402 C4.62831384,13.2727793 3.5,11.7341325 3.5,9.89882286 L3.5,9.89882286 L4.09511066,2.97957884 C4.09511066,2.60491701 4.59103621,2.34158707 5.287329,2.1822558 L5.287329,2.1822558 L5.287329,8.73817118 C5.287329,9.09216661 5.55426343,9.37816292 5.88310533,9.37816292 C6.21194724,9.37816292 6.47954734,9.09216661 6.47954734,8.73817118 L6.47954734,8.73817118 Z M16.3494643,2.33892044 C18.4423367,2.33892044 20.1391343,4.11223088 20.1391343,6.29820267 L20.1391343,6.29820267 L20.1391343,8.76417084 C20.1391343,10.5674809 18.9848593,12.8361183 17.4052199,13.5767754 L17.4052199,13.5767754 L17.4052199,22 L15.2950401,22 L15.2950401,13.577442 C13.7154007,12.8361183 12.5597943,10.5681476 12.5597943,8.7648375 L12.5597943,8.7648375 L12.5597943,6.29886933 C12.5597943,4.11223088 14.2559263,2.33892044 16.3494643,2.33892044 Z" id="path-1"></path>
    </defs>
    <g id="Visual/Icons/Food-Court" stroke="none" stroke-width="1" fill="none" fill-rule="evenodd">
        <mask id="mask-2" fill="white">
            <use xlink:href="#path-1"></use>
        </mask>
        <use id="🎨-Icon-Color" fill="#333333" xlink:href="#path-1"></use>
    </g>
</svg>