<?xml version="1.0" encoding="UTF-8"?>
<svg width="24px" height="24px" viewBox="0 0 24 24" version="1.1" xmlns="http://www.w3.org/2000/svg" xmlns:xlink="http://www.w3.org/1999/xlink">
    <title>Visual/Icons/Gas Station</title>
    <defs>
        <path d="M20.8145026,17.0846322 L20.8145026,5.69788579 L17.9415727,2.24052824 C17.7074574,1.95785959 17.2887254,1.91919265 17.0037735,2.15186095 C16.7214973,2.38652926 16.6827011,2.80386552 16.9161475,3.08653416 L18.3074616,4.76187923 L18.0171586,5.80521988 L19.4813829,7.41856451 L19.4813829,17.1319659 L19.4827207,17.188633 L19.4907475,17.2399667 C19.5195102,17.4193012 19.5047944,17.7493036 19.3850611,17.8906379 C19.32486,17.9586384 19.2084713,17.9939719 19.0385704,17.9939719 C18.8465958,17.9939719 18.7984349,17.9373049 18.7797057,17.9173047 C18.6579657,17.7766371 18.6399054,17.4066345 18.6726815,17.198633 L18.6820462,17.143966 L18.6820462,11.5125932 C18.6820462,10.5699199 18.4091346,9.83191475 17.8679936,9.31724448 C17.3689935,8.84390783 16.7823673,8.69724014 16.4178163,8.65457317 L16.4178163,4.21320872 C16.4178163,3.33320256 15.7020922,2.61919755 14.8198117,2.61919755 L6.82912031,2.61919755 C5.94750879,2.61919755 5.23245361,3.33320256 5.23245361,4.21320872 L5.23245361,20.2746546 L3.5,20.2746546 L3.5,22 L18.0171586,22 L18.0171586,20.2746546 L16.4178163,20.2746546 L16.4178163,9.99991593 C16.5783525,10.0405829 16.7810295,10.1172501 16.9482548,10.2785845 C17.2151463,10.5325863 17.3509332,10.9465892 17.3509332,11.5125932 L17.3509332,17.0399653 C17.3168192,17.2966337 17.2492602,18.1686398 17.7623073,18.7733107 C17.97368,19.0233125 18.3683316,19.3219812 19.0385704,19.3219812 C19.7649969,19.3219812 20.18306,19.0073124 20.4037974,18.7433105 C20.906142,18.1506397 20.8459409,17.3333006 20.8145026,17.0846322 L20.8145026,17.0846322 Z M14.8726549,7.79190046 C14.8726549,8.57857264 14.2351923,9.21391042 13.4472269,9.21391042 L8.33682318,9.21391042 C7.5488578,9.21391042 6.91139514,8.57857264 6.91139514,7.79190046 L6.91139514,5.54255137 C6.91139514,4.75721253 7.5488578,4.12054141 8.33682318,4.12054141 L13.4478958,4.12054141 C14.2358612,4.12054141 14.8733238,4.75721253 14.8733238,5.54255137 L14.8733238,7.79190046 L14.8726549,7.79190046 Z" id="path-1"></path>
    </defs>
    <g id="Visual/Icons/Gas-Station" stroke="none" stroke-width="1" fill="none" fill-rule="evenodd">
        <mask id="mask-2" fill="white">
            <use xlink:href="#path-1"></use>
        </mask>
        <use id="🎨-Icon-Color" fill="#333333" xlink:href="#path-1"></use>
    </g>
</svg>