<?xml version="1.0" encoding="UTF-8"?>
<svg width="24px" height="24px" viewBox="0 0 24 24" version="1.1" xmlns="http://www.w3.org/2000/svg" xmlns:xlink="http://www.w3.org/1999/xlink">
    <title>Visual/Icons/Hearing Aid</title>
    <defs>
        <path d="M14.1923283,2.11145648 C17.2936462,1.52812604 20.0702991,3.27145071 21.1969601,6.47543479 C22.0782891,8.98208899 21.3902925,11.2647443 20.1142989,13.4440668 C19.6776344,14.1893964 19.0516375,14.7853935 18.4963069,15.4360569 C17.6389778,16.4393853 17.062314,17.5760463 16.6556494,18.83804 C16.1783184,20.3206993 15.3289893,21.5586932 13.6763309,21.9066914 C12.3390042,22.1880234 11.1430101,21.8433584 10.2750144,20.7340306 C9.36568562,19.5720364 9.20501975,18.2867094 9.82035002,16.9300495 C9.99501582,16.5460514 10.3676806,16.3893855 10.7123456,16.5480514 C11.0923437,16.7233839 11.2556762,17.0247157 11.1216769,17.4353803 C11.0036775,17.7967118 10.8903447,18.1520434 10.899678,18.5407082 C10.9203446,19.4160371 11.4196754,20.1260336 12.2430046,20.4226988 C13.0196675,20.7020307 13.8943298,20.4753652 14.4456604,19.840035 C14.8616583,19.3620374 15.1843234,18.8213734 15.3516559,18.2113765 C15.7616538,16.7147172 16.5696498,15.4480569 17.5729782,14.2933959 C18.476307,13.2540678 19.2389699,12.1294067 19.7383007,10.8380798 C20.0082994,10.1394166 20.1609653,9.42008682 20.1309654,8.71009035 C20.1316321,5.9494374 18.2836413,3.79278145 15.6496544,3.43811655 C13.250333,3.11478482 11.1176769,5.15677467 11.3550091,7.55476275 C11.4096755,8.11142665 11.4430086,8.67475719 11.5583414,9.21942115 C11.6483409,9.64608569 11.5496748,9.88275118 11.1310102,9.99741728 C10.7030123,10.11475 10.3236809,9.9807507 10.1976815,9.584086 C9.01902067,5.87143779 10.8843447,2.73412005 14.1923283,2.11145648 Z M3.64571405,7.95342744 C4.0230455,7.51009631 4.37037711,7.43609668 4.70237546,7.71142864 C5.05104039,8.00076054 5.06504032,8.32075895 4.69237551,8.78875662 C3.41904851,10.3894153 3.09505012,12.1834064 3.60638091,14.1360634 C3.8757129,15.1647249 4.46370998,16.014054 5.23170616,16.7413838 C5.53170467,17.0247157 5.71770375,17.3380475 5.44503844,17.7373788 C5.31970572,17.9207112 5.13104,18.0233774 4.89437451,18.0353773 C4.67170895,18.0267107 4.5070431,17.899378 4.34171059,17.7553787 C1.93572254,15.6580558 0.879727793,11.2034113 3.64571405,7.95342744 Z M6.32903404,9.22675444 C6.47036667,9.23608773 6.66036573,9.36742041 6.78769843,9.60608589 C6.92303109,9.86008463 6.86436471,10.0954168 6.7063655,10.2987491 C6.37903379,10.718747 6.10636848,11.1667448 5.98103577,11.6867422 C5.68637057,12.9120695 6.03303551,13.9600643 6.89103125,14.8553931 C7.08903026,15.0620588 7.28236264,15.2680578 7.22169627,15.5827229 C7.11369681,16.1440534 6.50703316,16.3107192 6.0350355,15.883388 C4.94237427,14.8940596 4.44171009,13.6487325 4.5397096,12.1780731 C4.60504261,11.200078 4.95037423,10.3220823 5.57903777,9.56208611 C5.74237029,9.36542042 5.92370272,9.20608788 6.32903404,9.22675444 Z M15.4349888,5.48877054 C16.672316,5.48677303 18.0629757,6.69476703 18.212975,7.906761 C18.2476415,8.18542629 18.1236421,8.40409187 17.8689767,8.50009139 C17.5736448,8.61142417 17.2736463,8.59942423 17.0843139,8.28942577 C16.8956482,7.98076064 16.7463156,7.6467623 16.5443166,7.34809711 C16.1243187,6.7281002 15.4896552,6.5807676 14.8669916,6.93143252 C14.3103277,7.24543096 14.1623284,7.7667617 14.4403271,8.46942487 C14.654326,9.00942219 14.9663244,9.48875314 15.3243227,9.94675087 C16.3083178,11.2067446 16.3263177,12.5954044 15.394989,13.7000655 C14.7149924,14.5060615 13.7603304,14.6747274 13.0930004,14.1073969 C12.3956706,13.5153998 12.3530041,12.4260719 13.0043342,11.661409 C13.1430002,11.4994098 13.3003327,11.3527439 13.4556653,11.2054113 C14.0096625,10.6794139 14.0429957,10.4827482 13.6549976,9.84208472 C13.2796662,9.22542112 13.0310007,8.58075765 13.0770005,7.83742802 C13.1576668,6.54410111 14.2036616,5.49077301 15.4349888,5.48877054 Z M8.04502551,10.861413 C8.57368955,10.8800796 8.90102126,11.3854104 8.65168916,11.806075 C8.34102404,12.3300724 8.33835739,12.7800701 8.75702197,13.2380678 C8.97902087,13.4820666 8.93568775,13.7613986 8.72902211,13.9967307 C8.52968977,14.2247296 8.27102439,14.3300624 7.97902584,14.1807298 C7.37902882,13.873398 7.12769674,13.3274007 7.06703037,12.6980705 C7.00036404,12.0094073 7.18169647,11.3907437 7.76369358,10.9527459 C7.84902649,10.8887462 7.97835918,10.8820796 8.04502551,10.861413 Z" id="path-1"></path>
    </defs>
    <g id="Visual/Icons/Hearing-Aid" stroke="none" stroke-width="1" fill="none" fill-rule="evenodd">
        <mask id="mask-2" fill="white">
            <use xlink:href="#path-1"></use>
        </mask>
        <use id="🎨-Icon-Color" fill="#333333" xlink:href="#path-1"></use>
    </g>
</svg>