<?xml version="1.0" encoding="UTF-8"?>
<svg width="24px" height="24px" viewBox="0 0 24 24" version="1.1" xmlns="http://www.w3.org/2000/svg" xmlns:xlink="http://www.w3.org/1999/xlink">
    <title>Visual/Icons/Search/List View</title>
    <defs>
        <path d="M19.7898936,17.8258929 C19.9732934,17.8258929 20.1223404,17.9760045 20.1223404,18.1607143 L20.1223404,18.1607143 L20.1223404,19.1651786 C20.1223404,19.3498884 19.9732934,19.5 19.7898936,19.5 L19.7898936,19.5 L3.83244681,19.5 C3.64904699,19.5 3.5,19.3498884 3.5,19.1651786 L3.5,19.1651786 L3.5,18.1607143 C3.5,17.9760045 3.64904699,17.8258929 3.83244681,17.8258929 L3.83244681,17.8258929 Z M19.7898936,11.1294643 C19.9732934,11.1294643 20.1223404,11.2795759 20.1223404,11.4642857 L20.1223404,11.4642857 L20.1223404,12.46875 C20.1223404,12.6534598 19.9732934,12.8035714 19.7898936,12.8035714 L19.7898936,12.8035714 L3.83244681,12.8035714 C3.64904699,12.8035714 3.5,12.6534598 3.5,12.46875 L3.5,12.46875 L3.5,11.4642857 C3.5,11.2795759 3.64904699,11.1294643 3.83244681,11.1294643 L3.83244681,11.1294643 Z M19.7898936,4.5 C19.9732934,4.5 20.1223404,4.65011161 20.1223404,4.83482143 L20.1223404,4.83482143 L20.1223404,5.83928571 C20.1223404,6.02399554 19.9732934,6.17410714 19.7898936,6.17410714 L19.7898936,6.17410714 L3.83244681,6.17410714 C3.64904699,6.17410714 3.5,6.02399554 3.5,5.83928571 L3.5,5.83928571 L3.5,4.83482143 C3.5,4.65011161 3.64904699,4.5 3.83244681,4.5 L3.83244681,4.5 Z" id="path-1"></path>
    </defs>
    <g id="Visual/Icons/Search/List-View" stroke="none" stroke-width="1" fill="none" fill-rule="evenodd">
        <mask id="mask-2" fill="white">
            <use xlink:href="#path-1"></use>
        </mask>
        <use id="🎨-Icon-Color" fill="#333333" xlink:href="#path-1"></use>
    </g>
</svg>