<?xml version="1.0" encoding="UTF-8"?>
<svg width="24px" height="24px" viewBox="0 0 24 24" version="1.1" xmlns="http://www.w3.org/2000/svg" xmlns:xlink="http://www.w3.org/1999/xlink">
    <title>Visual/Icons/Location Pin - Solid</title>
    <defs>
        <path d="M12.1437166,2 C8.19719251,2 5,5.19 5,9.124 C5,10.7226667 5.52740642,12.198 6.41911765,13.3866667 L11.0013369,21.302 C11.0280749,21.3533333 11.0548128,21.404 11.0875668,21.4506667 L11.0975936,21.468 L11.1002674,21.4666667 C11.334893,21.7893333 11.7112299,22 12.1477273,22 C12.5414439,22 12.8856952,21.8206667 13.1216578,21.5453333 L13.1336898,21.552 L13.1784759,21.474 C13.2459893,21.384 13.3048128,21.2886667 13.3475936,21.1826667 L17.8368984,13.4273333 C18.7466578,12.2313333 19.2874332,10.7413333 19.2874332,9.12466667 C19.2867647,5.19 16.0902406,2 12.1437166,2 Z" id="path-1"></path>
    </defs>
    <g id="Visual/Icons/Location-Pin---Solid" stroke="none" stroke-width="1" fill="none" fill-rule="evenodd">
        <mask id="mask-2" fill="white">
            <use xlink:href="#path-1"></use>
        </mask>
        <use id="🎨-Icon-Color" fill="#333333" xlink:href="#path-1"></use>
    </g>
</svg>