<?xml version="1.0" encoding="UTF-8"?>
<svg width="24px" height="24px" viewBox="0 0 24 24" version="1.1" xmlns="http://www.w3.org/2000/svg" xmlns:xlink="http://www.w3.org/1999/xlink">
    <title>Visual/Icons/Mail</title>
    <defs>
        <path d="M14.6053333,12.718 C14.6733333,12.678 14.7586667,12.6913333 14.8113333,12.7486667 L14.8113333,12.7486667 L21.2666667,19.7066667 C21.312,19.7553333 21.324,19.8253333 21.2973333,19.8853333 C21.2706667,19.946 21.2113333,19.9853333 21.1453333,19.9853333 L21.1453333,19.9853333 L2.66333333,19.9853333 C2.55333333,19.9853333 2.44533333,19.9546667 2.33333333,19.888 C2.288,19.8613333 2.25733333,19.8146667 2.25133333,19.7626667 C2.24533333,19.7106667 2.26466667,19.6586667 2.30333333,19.6226667 L2.30333333,19.6226667 L9.518,12.93 C9.57133333,12.8813333 9.65,12.8726667 9.71333333,12.908 L9.71333333,12.908 L11.6133333,13.994 C11.8686667,14.1386667 12.1933333,14.1373333 12.4466667,13.988 L12.4466667,13.988 Z M21.8622222,8.49434568 L21.9173333,8.514 C21.9686667,8.544 22,8.59866667 22,8.65866667 L22,8.65866667 L22,17.634 C22,17.7026667 21.958,17.7633333 21.8953333,17.7886667 C21.8746667,17.796 21.854,17.8 21.834,17.8 C21.788,17.8 21.7446667,17.782 21.7126667,17.7473333 L21.7126667,17.7473333 L16.3253333,11.9406667 C16.2926667,11.9033333 16.2766667,11.8533333 16.2833333,11.8033333 C16.2906667,11.7533333 16.3206667,11.7093333 16.3633333,11.6846667 L16.3633333,11.6846667 L21.7493333,8.51533333 C21.8013333,8.48533333 21.8653333,8.484 21.9173333,8.514 Z M2.19365432,8.62508642 L2.24733333,8.644 L7.90066667,11.8733333 C7.946,11.9 7.97733333,11.9466667 7.98333333,11.9986667 C7.98866667,12.0513333 7.97,12.1033333 7.93066667,12.1393333 L7.93066667,12.1393333 L2.27866667,17.3833333 C2.24733333,17.4126667 2.20666667,17.4273333 2.166,17.4273333 C2.14266667,17.4273333 2.12,17.4226667 2.09866667,17.4133333 C2.03933333,17.3866667 2,17.3273333 2,17.2613333 L2,17.2613333 L2,8.78866667 C2,8.73 2.03133333,8.67466667 2.082,8.64533333 C2.13333333,8.616 2.19733333,8.61533333 2.24733333,8.644 Z M21.336,4.5 C21.7026667,4.5 22,4.79733333 22,5.16333333 L22,5.16333333 L22,6.35866667 C22,6.43733333 21.9333333,6.47733333 21.8693333,6.52066667 C21.816,6.55733333 21.674,6.63666667 21.6206667,6.666 L21.6206667,6.666 L12.1026667,12.2653333 C12.0773333,12.28 12.048,12.288 12.0186667,12.288 C11.99,12.288 11.962,12.2806667 11.936,12.266 L11.936,12.266 L2.12133333,6.66066667 C2.06666667,6.632 2,6.562 2,6.5 L2,6.5 L2,5.164 C2,4.79733333 2.29733333,4.5 2.664,4.5 L2.664,4.5 Z" id="path-1"></path>
    </defs>
    <g id="Visual/Icons/Mail" stroke="none" stroke-width="1" fill="none" fill-rule="evenodd">
        <mask id="mask-2" fill="white">
            <use xlink:href="#path-1"></use>
        </mask>
        <use id="🎨-Icon-Color" fill="#333333" xlink:href="#path-1"></use>
    </g>
</svg>