<?xml version="1.0" encoding="UTF-8"?>
<svg width="24px" height="24px" viewBox="0 0 24 24" version="1.1" xmlns="http://www.w3.org/2000/svg" xmlns:xlink="http://www.w3.org/1999/xlink">
    <title>Visual/Icons/Optical</title>
    <defs>
        <path d="M21.9593333,11.0594656 C21.0146667,10.7907989 18.482,10.6581323 16.7146667,10.6927989 C14.9473333,10.7274656 13.7013333,11.1734656 13.05,11.4014656 C12.3986667,11.6294656 11.4786667,11.7274656 10.4686667,11.2954656 C9.45866667,10.8634656 7.236,10.6581323 6.13666667,10.6581323 C5.03733333,10.6581323 3.44133333,10.8881323 2.72466667,10.9774656 C2.008,11.0667989 2.024,11.1687989 2.024,11.1687989 L2,12.3701323 C2.38266667,12.5861323 2.42333333,12.7241323 2.57,13.0787989 C2.71666667,13.4327989 2.94866667,14.9641323 3.28666667,15.8681323 C3.62466667,16.7721323 4.29666667,17.3461323 5.79866667,17.3901323 C7.30133333,17.4341323 8.65266667,17.2967989 9.54466667,16.4054656 C10.436,15.5141323 10.5673333,14.9261323 10.762,14.5081323 C10.986,14.0281323 11.1366667,13.0141323 11.45,12.7774656 C11.7633333,12.5407989 12.5046667,12.5574656 12.688,13.1274656 C12.8713333,13.6974656 13.1766667,14.4714656 13.4413333,15.0327989 C13.706,15.5947989 14.292,16.6861323 15.5993333,17.0927989 C16.9066667,17.5001323 18.6126667,17.4714656 19.5653333,17.1087989 C20.518,16.7461323 20.75,15.6147989 20.848,15.4274656 C20.946,15.2401323 21.3773333,13.2774656 21.5033333,12.8947989 C21.6293333,12.5127989 22,12.3701323 22,12.3701323 L21.9593333,11.0594656 Z M9.106,15.0787989 C8.538,16.3041323 7.23133333,16.3921323 6.608,16.4434656 C5.98466667,16.4947989 5.444,16.4021323 4.95,16.2427989 C4.45533333,16.0827989 4.04333333,15.2281323 3.92533333,13.8841323 C3.80733333,12.5401323 4.162,12.1641323 4.368,12.0041323 C4.574,11.8447989 5.46,11.6181323 6.696,11.5974462 C6.696,11.5974462 9.39733333,11.5814656 9.624,12.4674656 C9.85066667,13.3527989 9.67466667,13.8541323 9.106,15.0787989 Z M17.3046667,11.5967795 C18.5406667,11.6174656 19.4266667,11.8441323 19.6326667,12.0034656 C19.838,12.1641323 20.1933333,12.5401323 20.0746667,13.8841323 C19.956,15.2281323 19.544,16.0834656 19.05,16.2427989 C18.5553333,16.4021323 18.0146667,16.4954656 17.392,16.4434656 C16.7686667,16.3921323 15.462,16.3041323 14.894,15.0787989 C14.326,13.8534656 14.15,13.3527989 14.3766667,12.4667989 C14.6033333,11.5807989 17.3046667,11.5967795 17.3046667,11.5967795 Z M15.6260061,6.50099054 L15.7826667,6.50213227 C16.6753333,6.54346561 18.01,7.43013227 18.01,7.43013227 L18.01,7.43013227 L21.6373333,10.0401323 C21.0166667,9.92079894 19.2533333,9.80613227 19.2533333,9.80613227 C19.2533333,9.80613227 17.16,7.93546561 16.7493333,7.65213227 C16.3386667,7.36879894 15.9433333,7.30079894 15.5693333,7.34146561 C15.1953333,7.38213227 14.9033333,7.64079894 14.718,7.71479894 C14.5326667,7.78879894 14.598,7.80013227 14.2806667,7.70279894 C13.9626667,7.60546561 14.0346667,7.36146561 14.0453333,7.19679894 C14.056,7.03213227 14.8906667,6.46079894 15.7826667,6.50213227 Z M8.218,6.50213227 C9.11066667,6.46079894 9.94533333,7.03213227 9.95533333,7.19679894 C9.96533333,7.36146561 10.0373333,7.60546561 9.72,7.70279894 C9.402,7.80013227 9.468,7.78879894 9.28266667,7.71479894 C9.09733333,7.64079894 8.80533333,7.38213227 8.43133333,7.34146561 C8.058,7.30146561 7.662,7.36879894 7.25133333,7.65213227 C6.84066667,7.93546561 4.74733333,9.80613227 4.74733333,9.80613227 C4.74733333,9.80613227 2.984,9.92079894 2.36333333,10.0401323 L2.36333333,10.0401323 L5.99066667,7.43013227 C5.99066667,7.43013227 7.326,6.54346561 8.218,6.50213227 Z" id="path-1"></path>
    </defs>
    <g id="Visual/Icons/Optical" stroke="none" stroke-width="1" fill="none" fill-rule="evenodd">
        <mask id="mask-2" fill="white">
            <use xlink:href="#path-1"></use>
        </mask>
        <use id="🎨-Icon-Color" fill="#333333" xlink:href="#path-1"></use>
    </g>
</svg>