<?xml version="1.0" encoding="UTF-8"?>
<svg width="24px" height="24px" viewBox="0 0 24 24" version="1.1" xmlns="http://www.w3.org/2000/svg" xmlns:xlink="http://www.w3.org/1999/xlink">
    <title>Visual/Icons/PDF</title>
    <defs>
        <path d="M19.7,11.2 L7.79230769,11.2 C7.25715385,11.2 6.82307692,11.618 6.82307692,12.1333333 L6.82307692,16.3466667 C6.82307692,16.862 7.25715385,17.28 7.79230769,17.28 L19.7,17.28 C20.2351538,17.28 20.6692308,16.862 20.6692308,16.3466667 L20.6692308,12.1333333 C20.6692308,11.618 20.2351538,11.2 19.7,11.2 Z M11.4456154,14.0813333 C11.3576923,14.2406667 11.2448462,14.3666667 11.1091538,14.4573333 C10.9734615,14.548 10.835,14.6093333 10.6937692,14.638 C10.5026923,14.6746667 10.2257692,14.6926667 9.86369231,14.6926667 L9.34169231,14.6926667 L9.34169231,16.1326667 L8.54138462,16.1326667 L8.54138462,12.3146667 L9.82561538,12.3146667 C10.3123077,12.3146667 10.6300769,12.3333333 10.7775385,12.372 C11.0046154,12.4293333 11.195,12.5533333 11.348,12.746 C11.501,12.9386667 11.5778541,13.1853333 11.5778541,13.4893333 C11.5785385,13.7246667 11.5342308,13.922 11.4456154,14.0813333 Z M15.4346923,15.0733333 C15.3356923,15.3513333 15.1937692,15.576 15.0103077,15.748 C14.8711538,15.878 14.6842308,15.98 14.4481538,16.0526667 C14.2709231,16.1066667 14.0348462,16.1333333 13.7392308,16.1333333 L12.2327692,16.1333333 L12.2327692,12.3153333 L13.6956154,12.3153333 C14.0258462,12.3153333 14.2771538,12.3393333 14.4502308,12.388 C14.6828462,12.454 14.8822308,12.5706667 15.0476923,12.7393333 C15.2131538,12.908 15.3398462,13.114 15.4263846,13.358 C15.5129231,13.602 15.5565385,13.9026667 15.5565385,14.2606667 C15.5565385,14.5753333 15.5156923,14.8466667 15.4346923,15.0733333 Z M14.3,2 C14.3872308,2.01 14.4640769,2.05933333 14.5076923,2.13333333 L14.5076923,2.13333333 L18.5230769,6.53333333 C18.6213846,6.61733333 18.6726154,6.74066667 18.6615385,6.86666667 L18.6615385,6.86666667 L18.6615385,10.5333333 L17.3461538,10.5333333 L17.3461538,7.53333333 L14.0230769,7.53333333 C13.832,7.53333333 13.6769231,7.384 13.6769231,7.2 L13.6769231,7.2 L13.6769231,3.46666667 L4.95384615,3.46666667 L4.95384615,20.6 L17.4153846,20.6 L17.2769231,20.5333333 L17.2769231,17.9333333 L18.5923077,17.9333333 L18.5923077,21.2 C18.5923077,21.642 18.2205385,22 17.7615385,22 L17.7615385,22 L4.33076923,22 C3.87176923,22 3.5,21.642 3.5,21.2 L3.5,21.2 L3.5,2.8 C3.5,2.358 3.87176923,2 4.33076923,2 L4.33076923,2 Z M18.9585385,12.3153333 L18.9585385,12.9613333 L17.0408462,12.9613333 L17.0408462,13.8646667 L18.6961538,13.8646667 L18.6961538,14.5106667 L17.0408462,14.5106667 L17.0408462,16.1333333 L16.2405385,16.1333333 L16.2405385,12.3153333 L18.9585385,12.3153333 Z M13.3930769,12.9613333 C13.7191538,12.9613333 13.9379231,12.974 14.0500769,12.998 C14.1996154,13.0293333 14.3228462,13.0893333 14.4204615,13.178 C14.5180769,13.266 14.5935385,13.388 14.6475385,13.5466667 C14.7015385,13.7053333 14.7285385,13.9313333 14.7285385,14.2266667 C14.7285385,14.522 14.7015385,14.7546667 14.6475385,14.926 C14.5935385,15.0973333 14.5236154,15.22 14.4377692,15.2946667 C14.3519231,15.3693333 14.2446154,15.422 14.1144615,15.4533333 C14.0154615,15.4773333 13.8541538,15.49 13.6305385,15.49 L13.6305385,15.49 L13.0330769,15.49 L13.0330769,12.9613333 Z M9.72869231,12.9613333 C10.0166923,12.9613333 10.2091538,12.97 10.3046923,12.9873333 C10.4341538,13.0106667 10.5407692,13.066 10.6259231,13.1566667 C10.7110769,13.2473333 10.7533077,13.362 10.7533077,13.5006667 C10.7533077,13.6133333 10.7228462,13.712 10.6626154,13.7973333 C10.6023846,13.8826667 10.5193077,13.9446667 10.4126923,13.9846667 C10.3060769,14.0246667 10.0956154,14.0446667 9.77992308,14.0446667 L9.77992308,14.0446667 L9.34169231,14.0446667 L9.34169231,12.9613333 Z" id="path-1"></path>
    </defs>
    <g id="Visual/Icons/PDF" stroke="none" stroke-width="1" fill="none" fill-rule="evenodd">
        <mask id="mask-2" fill="white">
            <use xlink:href="#path-1"></use>
        </mask>
        <use id="🎨-Icon-Color" fill="#333333" xlink:href="#path-1"></use>
    </g>
</svg>