<?xml version="1.0" encoding="UTF-8"?>
<svg width="24px" height="24px" viewBox="0 0 24 24" version="1.1" xmlns="http://www.w3.org/2000/svg" xmlns:xlink="http://www.w3.org/1999/xlink">
    <title>Visual/Icons/Pharmacy</title>
    <defs>
        <path d="M11.3633344,10.712 C11.2726678,10.666 11.1680011,10.6353333 11.0506678,10.62 C10.9333344,10.6033333 10.8186678,10.5953333 10.7066678,10.5953333 L9.88933442,10.5953333 L9.88933442,11.8853333 L10.6266678,11.8853333 C10.7386678,11.8853333 10.8580011,11.8826667 10.9833344,11.874 C11.1086678,11.866 11.2226678,11.842 11.3240011,11.802 C11.4253344,11.762 11.5100011,11.6993333 11.5760011,11.614 C11.6426678,11.5286667 11.6766678,11.4086667 11.6766678,11.254 C11.6766678,11.1093333 11.6466678,10.9946667 11.5880011,10.9086667 C11.5293344,10.8226667 11.4546678,10.7573333 11.3633344,10.712 Z M6.28466776,6.39266667 L6.65400109,20.768 C6.65466776,21.4453333 6.83933442,22 7.51733442,22 L16.4713344,22 C17.1493344,22 17.3340011,21.4453333 17.3340011,20.768 L17.7033344,6.39266667 L6.28466776,6.39266667 Z M10.8346678,9.53866667 C11.1233344,9.53866667 11.3973344,9.56666667 11.6566678,9.62266667 C11.9153344,9.67933333 12.1420011,9.77266667 12.3373344,9.90333333 C12.5326678,10.034 12.6873344,10.2106667 12.8020011,10.432 C12.9166678,10.654 12.9746678,10.9306667 12.9746678,11.262 C12.9746678,11.6626667 12.8706678,12.0033333 12.6620011,12.2833333 C12.4893344,12.5153333 12.2466678,12.6733333 11.9426678,12.7646667 L11.9440011,12.7666667 L11.9426678,12.7666667 L11.9446678,12.768 L11.9700011,12.81 L11.9780011,12.81 L12.0413344,12.914 L12.0406678,12.9133333 L12.0840011,12.9953333 L12.9300011,14.3853333 L13.7280011,12.8146667 L15.2426678,12.8146667 L13.7193344,15.186 L15.4586678,17.864 L13.8873344,17.864 L12.8140011,15.892 L11.7800011,17.864 L10.2973344,17.864 L11.9673344,15.2186667 L11.9700011,15.2186667 L11.9686678,15.2166667 L11.9720011,15.2113333 L10.6073344,13.102 L10.4933344,12.9446667 L9.88933442,12.9446667 L9.88933442,15.2113333 L8.63866776,15.2113333 L8.63866776,9.53866667 L10.8346678,9.53866667 Z M17.8073344,2 C18.1840011,2 18.4886678,2.30533333 18.4886678,2.68133333 L18.4886678,4.64866667 C18.4886678,5.02533333 18.1833344,5.33066667 17.8073344,5.33066667 L6.18133442,5.33066667 C5.80466776,5.33066667 5.5,5.02533333 5.5,4.64933333 L5.5,2.68133333 C5.49933442,2.30533333 5.80466776,2 6.18066776,2 L17.8073344,2 Z" id="path-1"></path>
    </defs>
    <g id="Visual/Icons/Pharmacy" stroke="none" stroke-width="1" fill="none" fill-rule="evenodd">
        <mask id="mask-2" fill="white">
            <use xlink:href="#path-1"></use>
        </mask>
        <use id="🎨-Icon-Color" fill="#333333" xlink:href="#path-1"></use>
    </g>
</svg>