<?xml version="1.0" encoding="UTF-8"?>
<svg width="24px" height="24px" viewBox="0 0 24 24" version="1.1" xmlns="http://www.w3.org/2000/svg" xmlns:xlink="http://www.w3.org/1999/xlink">
    <title>Visual/Icons/Expand</title>
    <defs>
        <path d="M21.5006652,10.9996993 L13,10.9996993 L13,2.50064994 C13,2.22399252 12.7893325,2 12.5299992,2 L11.4699993,2 C11.210666,2 11,2.22465916 11,2.50064994 L11,10.9996993 L2.50066663,10.9996993 C2.22399998,10.9996993 2,11.210359 2,11.4703503 L2,12.5296482 C2,12.7896395 2.22466665,13.0002992 2.50066663,13.0002992 L11,13.0002992 L11,21.5000152 C11,21.776006 11.210666,22 11.4699993,22 L12.5299992,22 C12.7893325,22.0006652 13,21.7766726 13,21.5006819 L13,12.9996325 L21.5,12.9996325 C21.7759985,12.9996325 22,12.7889729 22,12.5289816 L22,11.4696836 C22.0006652,11.210359 21.7766652,10.9996993 21.5006652,10.9996993 Z" id="path-1"></path>
    </defs>
    <g id="Visual/Icons/Expand" stroke="none" stroke-width="1" fill="none" fill-rule="evenodd">
        <mask id="mask-2" fill="white">
            <use xlink:href="#path-1"></use>
        </mask>
        <use id="🎨-Icon-Color" fill="#333333" xlink:href="#path-1"></use>
    </g>
</svg>