<?xml version="1.0" encoding="UTF-8"?>
<svg width="24px" height="24px" viewBox="0 0 24 24" version="1.1" xmlns="http://www.w3.org/2000/svg" xmlns:xlink="http://www.w3.org/1999/xlink">
    <title>Visual/Icons/Print</title>
    <defs>
        <path d="M21.2913333,10.2476143 L18.9233333,10.2476143 L18.9233333,7.14964286 C18.9233333,6.82668571 18.8426667,6.4715 18.6833333,6.08408571 C18.522,5.69667143 18.3293333,5.3905 18.1066667,5.16355714 L16.2786667,3.32384286 C16.054,3.09757143 15.7513333,2.90487143 15.3653333,2.74305714 C14.9813333,2.58124286 14.6273333,2.5 14.3086667,2.5 L6.23133333,2.5 C5.91066667,2.5 5.63733333,2.6128 5.41266667,2.83907143 C5.188,3.06534286 5.076,3.33995714 5.076,3.66291429 L5.076,10.2476143 L2.646,10.2476143 C2.16866667,10.2476143 2,10.4557571 2,11.0942857 L2,16.9363857 C2,17.0411286 2.03866667,17.1324429 2.114,17.2083143 C2.19133333,17.2848571 2.28066667,17.3238 2.384,17.3238 L5.07666667,17.3238 L5.07666667,19.9323 C5.07666667,20.2545857 5.18866667,20.5292 5.41333333,20.7548 C5.638,20.9804 5.91133333,21.0938714 6.232,21.0938714 L17.7713333,21.0938714 C18.0906667,21.0938714 18.364,20.9810714 18.588,20.7548 C18.812,20.5285286 18.9246667,20.2545857 18.9246667,19.9323 L18.9246667,17.3238 L21.6173333,17.3238 C21.7206667,17.3238 21.812,17.2848571 21.8873333,17.2083143 C21.9633333,17.1324429 22,17.0418 22,16.9363857 L22,10.8968857 C22,10.4624714 21.9246667,10.2476143 21.2913333,10.2476143 Z M17.3846667,19.5448857 L6.61533333,19.5448857 L6.61533333,16.4455714 L17.3846667,16.4455714 L17.3846667,19.5448857 L17.3846667,19.5448857 Z M17.3846667,12.8460429 L6.61533333,12.8460429 L6.61533333,4.05032857 L14.3086667,4.05032857 L14.3086667,4.50622857 C14.3086667,7.0449 14.3126667,7.14964286 16.9686667,7.14964286 L17.3846667,7.14964286 L17.3846667,12.8460429 Z M20.12,12.9219143 C19.6806667,12.9219143 19.324,12.5627 19.324,12.1202286 C19.324,11.6777571 19.6806667,11.3185429 20.12,11.3185429 C20.5593333,11.3185429 20.916,11.6777571 20.916,12.1202286 C20.916,12.5627 20.5593333,12.9219143 20.12,12.9219143 Z" id="path-1"></path>
    </defs>
    <g id="Visual/Icons/Print" stroke="none" stroke-width="1" fill="none" fill-rule="evenodd">
        <mask id="mask-2" fill="white">
            <use xlink:href="#path-1"></use>
        </mask>
        <use id="🎨-Icon-Color" fill="#333333" xlink:href="#path-1"></use>
    </g>
</svg>