<?xml version="1.0" encoding="UTF-8"?>
<svg width="24px" height="24px" viewBox="0 0 24 24" version="1.1" xmlns="http://www.w3.org/2000/svg" xmlns:xlink="http://www.w3.org/1999/xlink">
    <title>Visual/Icons/Propane</title>
    <defs>
        <path d="M16.7810131,5.51 L15.0566013,5.51 C15.2187255,3.53266667 16.1901307,3.08133333 16.6141993,2.97933333 L17.0268791,2.97933333 C17.2077614,2.97933333 17.3544771,2.83333333 17.3544771,2.65333333 L17.3544771,2.326 C17.3551471,2.146 17.2084314,2 17.0268791,2 L7.03279412,2 C6.85124183,2 6.70452614,2.146 6.70452614,2.326 L6.70452614,2.652 C6.70452614,2.832 6.85124183,2.978 7.03212418,2.978 L7.48232026,2.978 C8.42089869,3.19066667 8.80276144,4.65333333 8.94746732,5.50866667 L7.27866013,5.50866667 C5.47519608,5.50866667 4,6.97666667 4,8.77133333 L4,17.2546667 C4,19.0493333 5.47519608,20.5173333 7.27866013,20.5173333 L7.38852941,20.5173333 L7.38852941,21.3466667 L7.03279412,21.3466667 C6.85191176,21.3466667 6.70519608,21.4926667 6.70519608,21.6726667 C6.70452614,21.854 6.85124183,22 7.03279412,22 L17.027549,22 C17.2084314,22 17.3551471,21.854 17.3551471,21.674 C17.3551471,21.494 17.2084314,21.348 17.027549,21.348 L16.6718137,21.348 L16.6718137,20.5186667 L16.781683,20.5186667 C18.5851471,20.5186667 20.0603431,19.0506667 20.0603431,17.256 L20.0603431,8.77266667 C20.0596732,6.978 18.5844771,5.51 16.7810131,5.51 Z M8.97895425,2.97866667 L15.0117157,2.97866667 C14.5809477,3.49266667 14.2218627,4.28733333 14.1327614,5.50933333 L12.4807026,5.50933333 L12.4807026,5.23333333 L12.3165686,5.23333333 L12.3165686,4.90733333 L12.5624346,4.90733333 L12.5624346,5.152 L13.3824346,5.152 L13.3824346,4.01 L12.5624346,4.01 L12.5624346,4.25466667 L12.3165686,4.25466667 L12.3165686,3.92866667 L12.1524346,3.92866667 L12.1524346,3.76533333 L12.4800327,3.76533333 C12.5704739,3.76533333 12.6441667,3.692 12.6441667,3.602 C12.6441667,3.512 12.5704739,3.43866667 12.4800327,3.43866667 L10.8407026,3.43866667 C10.7502614,3.43866667 10.6772386,3.512 10.6772386,3.602 C10.6772386,3.692 10.7502614,3.76533333 10.8407026,3.76533333 L11.1689706,3.76533333 L11.1689706,3.92866667 L11.0048366,3.92866667 L11.0048366,5.23333333 L10.8407026,5.23333333 L10.8407026,5.50933333 L9.88470588,5.50933333 C9.78890523,4.85466667 9.54906863,3.76666667 8.97895425,2.97866667 Z M10.0113235,21.24 L8.04439542,21.24 L8.04439542,20.7013333 L10.0113235,20.7013333 L10.0113235,21.24 Z M13.0133007,21.24 L11.0463725,21.24 L11.0463725,20.7013333 L13.0133007,20.7013333 L13.0133007,21.24 Z M16.0152778,21.24 L14.0483497,21.24 L14.0483497,20.7013333 L16.0152778,20.7013333 L16.0152778,21.24 Z M13.4742157,17.5686667 C14.8475817,14.2493333 12.1008497,12.2693333 12.1008497,12.2693333 C12.1912908,14.0006667 11.3505229,14.7286667 11.3505229,14.7286667 C11.4945588,13.9886667 11.1106863,13.4513333 11.1106863,13.4513333 C10.990768,14.156 10.1747876,15.3566667 10.1747876,15.3566667 C9.62276144,16.534 10.2705882,17.5693333 10.2705882,17.5693333 C8.37534314,16.566 8.03434641,15.576 8.03434641,14.6693333 C8.03434641,13.7626667 8.68686275,12.5326667 8.84295752,12.3066667 C8.99905229,12.0806667 9.20271242,11.1846667 9.20271242,11.1846667 C9.63482026,11.6633333 9.57452614,12.628 9.57452614,12.628 C11.7578431,10.0853333 11.3136765,8.46066667 11.3136765,8.46066667 C13.3529575,9.24733333 13.880866,11.8166667 13.880866,11.8166667 C14.4690686,11.0886667 14.0731373,10.1933333 14.0731373,10.1933333 C18.7888072,14.8593333 13.4742157,17.5686667 13.4742157,17.5686667 Z" id="path-1"></path>
    </defs>
    <g id="Visual/Icons/Propane" stroke="none" stroke-width="1" fill="none" fill-rule="evenodd">
        <mask id="mask-2" fill="white">
            <use xlink:href="#path-1"></use>
        </mask>
        <use id="🎨-Icon-Color" fill="#333333" xlink:href="#path-1"></use>
    </g>
</svg>