<?xml version="1.0" encoding="UTF-8"?>
<svg width="24px" height="24px" viewBox="0 0 24 24" version="1.1" xmlns="http://www.w3.org/2000/svg" xmlns:xlink="http://www.w3.org/1999/xlink">
    <title>Visual/Icons/Magnifying Glass</title>
    <defs>
        <path d="M13.1376569,2 C8.98568175,2 5.60826447,5.202758 5.60826447,9.13820357 C5.60826447,11.3055987 6.63614525,13.2469874 8.24958648,14.5570248 L3.5982602,20.6965332 C3.43777817,20.9078726 3.47823025,21.1952141 3.6877853,21.3385515 L4.54324736,21.9212348 C4.75346556,22.0639055 5.05387201,22.0072372 5.21369089,21.7958979 L9.92138482,15.5823873 C10.8982031,16.0223999 11.9857673,16.2764071 13.1376569,16.2764071 C17.2896321,16.2764071 20.6670494,13.0743158 20.6670494,9.13753688 C20.6670494,5.202758 17.2889689,2 13.1376569,2 Z M13.1376569,14.5723585 C9.97708933,14.5723585 7.4060611,12.1349557 7.4060611,9.13820357 C7.4060611,6.14211813 9.97708933,3.70471528 13.1376569,3.70471528 C16.2982245,3.70471528 18.8692527,6.14211813 18.8692527,9.13820357 C18.8692527,12.1349557 16.2982245,14.5723585 13.1376569,14.5723585 Z" id="path-1"></path>
    </defs>
    <g id="Visual/Icons/Magnifying-Glass" stroke="none" stroke-width="1" fill="none" fill-rule="evenodd">
        <mask id="mask-2" fill="white">
            <use xlink:href="#path-1"></use>
        </mask>
        <use id="🎨-Icon-Color" fill="#333333" xlink:href="#path-1"></use>
    </g>
</svg>