<?xml version="1.0" encoding="UTF-8"?>
<svg width="24px" height="24px" viewBox="0 0 24 24" version="1.1" xmlns="http://www.w3.org/2000/svg" xmlns:xlink="http://www.w3.org/1999/xlink">
    <title>Visual/Icons/Shopping List</title>
    <defs>
        <path d="M3.69736621,16.2385067 C4.63479568,16.2385067 5.39473241,16.9984434 5.39473241,17.9358729 C5.39473241,18.8733024 4.63479568,19.6332391 3.69736621,19.6332391 C2.75993674,19.6332391 2,18.8733024 2,17.9358729 C2,16.9984434 2.75993674,16.2385067 3.69736621,16.2385067 Z M19.265001,16.6238475 C19.3476693,16.6238475 19.4176707,16.6545148 19.4776718,16.7138493 C19.537673,16.7731837 19.5676736,16.8445185 19.5676736,16.92652 L19.5676736,16.92652 L19.5676736,18.7432219 C19.5676736,18.8252235 19.5370063,18.8958915 19.4776718,18.9558927 C19.4183373,19.0158938 19.3470026,19.0458944 19.265001,19.0458944 L19.265001,19.0458944 L7.75877819,19.0458944 C7.67744328,19.0458944 7.60610857,19.0152272 7.54610741,18.9558927 C7.48610625,18.8965582 7.45610567,18.8252235 7.45610567,18.7432219 L7.45610567,18.7432219 L7.45610567,16.92652 C7.45610567,16.8451851 7.48677293,16.7738504 7.54610741,16.7138493 C7.60544189,16.6538481 7.67677661,16.6238475 7.75877819,16.6238475 L7.75877819,16.6238475 Z M3.69736621,11.2930776 C4.63479568,11.2930776 5.39473241,12.0530143 5.39473241,12.9904438 C5.39473241,13.9278733 4.63479568,14.68781 3.69736621,14.68781 C2.75993674,14.68781 2,13.9278733 2,12.9904438 C2,12.0530143 2.75993674,11.2930776 3.69736621,11.2930776 Z M16.4056123,11.779087 C16.4756137,12.0137582 16.597616,12.2324291 16.7762862,12.4084325 C17.0529582,12.6897713 17.4356323,12.8504411 17.8303066,12.8504411 L17.8303066,12.8504411 L17.8463069,12.8504411 L17.8776408,12.8497744 L18.8716601,12.8504411 C19.1203316,12.8504411 19.3563361,12.7831065 19.5676736,12.6711043 L19.5676736,12.6711043 L19.5676736,13.8984614 C19.5676736,13.980463 19.5370063,14.051131 19.4776718,14.1111322 C19.4183373,14.1711333 19.3470026,14.2011339 19.265001,14.2011339 L19.265001,14.2011339 L7.75877819,14.2011339 C7.67744328,14.2011339 7.60610857,14.1704667 7.54610741,14.1111322 C7.48610625,14.0517977 7.45610567,13.980463 7.45610567,13.8984614 L7.45610567,13.8984614 L7.45610567,12.0817595 C7.45610567,12.0004246 7.48677293,11.9290899 7.54610741,11.8690888 C7.60544189,11.8090876 7.67677661,11.779087 7.75877819,11.779087 L7.75877819,11.779087 Z M18.8316593,4.50027939 C18.9629952,4.49694599 19.0883309,4.55094703 19.1769993,4.64694889 C19.2743345,4.738284 19.3283356,4.86695315 19.3236688,5.00028907 L19.3236688,5.00028907 L19.3223355,7.16966442 L21.5003777,7.16966442 C21.6337136,7.16499766 21.7623827,7.21833203 21.8530511,7.31633392 C21.9497197,7.40500231 22.0030541,7.53033807 21.9997207,7.66100727 L21.9997207,7.66100727 L21.9997207,8.66102663 C22.0043874,8.79502923 21.9503864,8.92369839 21.8523845,9.01436681 C21.761716,9.11170203 21.6330469,9.16570307 21.499711,9.16103632 L21.499711,9.16103632 L19.3696697,9.17503659 L19.3623362,11.3344117 C19.367003,11.4677477 19.3136686,11.5964168 19.2156667,11.6870852 C19.1269984,11.7830871 19.0016626,11.8364215 18.8709934,11.8337547 L18.8709934,11.8337547 L17.8443068,11.8337547 C17.712971,11.8384215 17.5863019,11.7857538 17.4956334,11.6904186 C17.4002982,11.5997502 17.3476306,11.4730811 17.3522973,11.3417452 L17.3522973,11.3417452 L17.3502973,9.17503659 L15.1875887,9.17636995 C15.0535861,9.1810367 14.924917,9.12770234 14.8342486,9.02970044 C14.7262465,8.93836534 14.6762455,8.8023627 14.6815789,8.66102663 L14.6815789,8.66102663 L14.683579,7.67367418 C14.6802456,7.5423383 14.7335799,7.41700254 14.8302485,7.32833416 C14.9235836,7.21766535 15.0629196,7.15766418 15.2069224,7.16566434 L15.2069224,7.16566434 L17.3482972,7.16833106 L17.3522973,4.98362208 C17.3476306,4.85828632 17.3949648,4.73695064 17.4829665,4.64694889 C17.5743016,4.54961368 17.7029708,4.49561263 17.8363067,4.50027939 L17.8363067,4.50027939 Z M3.69736621,6.46965086 C4.63479568,6.46965086 5.39473241,7.22958759 5.39473241,8.16701706 C5.39473241,9.10444653 4.63479568,9.86438327 3.69736621,9.86438327 C2.75993674,9.86438327 2,9.10444653 2,8.16701706 C2,7.22958759 2.75993674,6.46965086 3.69736621,6.46965086 Z M13.8662298,6.93432653 C13.7348939,7.16433098 13.6608925,7.42566937 13.6668926,7.69634128 L13.6668926,7.69634128 L13.6642259,8.64502632 C13.6582258,8.89969792 13.7215603,9.14103593 13.8308958,9.35704011 L13.8308958,9.35704011 L7.75877819,9.35704011 C7.67744328,9.35704011 7.60610857,9.32703953 7.54610741,9.26703837 C7.48610625,9.20770389 7.45610567,9.13636917 7.45610567,9.05436758 L7.45610567,9.05436758 L7.45610567,7.23766573 C7.45610567,7.15499747 7.48677293,7.08432943 7.54610741,7.02432827 C7.60544189,6.96432711 7.67677661,6.93432653 7.75877819,6.93432653 L7.75877819,6.93432653 Z" id="path-1"></path>
    </defs>
    <g id="Visual/Icons/Shopping-List" stroke="none" stroke-width="1" fill="none" fill-rule="evenodd">
        <mask id="mask-2" fill="white">
            <use xlink:href="#path-1"></use>
        </mask>
        <use id="🎨-Icon-Color" fill="#333333" xlink:href="#path-1"></use>
    </g>
</svg>