<?xml version="1.0" encoding="UTF-8"?>
<svg width="24px" height="24px" viewBox="0 0 24 24" version="1.1" xmlns="http://www.w3.org/2000/svg" xmlns:xlink="http://www.w3.org/1999/xlink">
    <title>Visual/Icons/Product Ratings Star</title>
    <defs>
        <path d="M22,9.892 C22,10.0686667 21.8953333,10.2606667 21.6873333,10.4686667 L17.324,14.7233333 L18.3573333,20.7326667 C18.3646667,20.788 18.3693333,20.8686667 18.3693333,20.9733333 C18.3693333,21.142 18.3273333,21.2833333 18.2433333,21.4 C18.1593333,21.516 18.0366667,21.574 17.8766667,21.574 C17.724,21.574 17.564,21.526 17.396,21.43 L12,18.594 L6.60333333,21.4306667 C6.42666667,21.5266667 6.26666667,21.5746667 6.12266667,21.5746667 C5.95466667,21.5746667 5.828,21.516 5.744,21.4006667 C5.66,21.284 5.618,21.142 5.618,20.974 C5.618,20.926 5.62533333,20.8453333 5.642,20.7333333 L6.67533333,14.724 L2.30066667,10.4693333 C2.1,10.2526667 2,10.06 2,9.892 C2,9.596 2.224,9.41133333 2.67333333,9.33933333 L8.70666667,8.462 L11.4106667,2.99333333 C11.5626667,2.66466667 11.7593333,2.5 12,2.5 C12.2406667,2.5 12.4366667,2.66466667 12.5886667,2.99266667 L15.2933333,8.46133333 L21.3266667,9.33866667 C21.7753333,9.41133333 22,9.596 22,9.892 Z" id="path-1"></path>
    </defs>
    <g id="Visual/Icons/Product-Ratings-Star" stroke="none" stroke-width="1" fill="none" fill-rule="evenodd">
        <mask id="mask-2" fill="white">
            <use xlink:href="#path-1"></use>
        </mask>
        <use id="🎨-Icon-Color" fill="#333333" xlink:href="#path-1"></use>
    </g>
</svg>