<?xml version="1.0" encoding="UTF-8"?>
<svg width="24px" height="24px" viewBox="0 0 24 24" version="1.1" xmlns="http://www.w3.org/2000/svg" xmlns:xlink="http://www.w3.org/1999/xlink">
    <title>Visual/Icons/Tire Center</title>
    <defs>
        <path d="M8.38533333,14.2346667 C8.81133333,13.6886667 10.7373333,12.9606667 11.174,13.2793333 C11.6113333,13.596 11.5166667,15.6546667 11.1273333,16.2286667 C10.7373333,16.802 9.57133333,15.9666667 9.34266667,15.8 C9.11533333,15.634 7.95933333,14.7826667 8.38533333,14.2346667 Z M13.1033333,13.2786667 C13.54,12.9606667 15.4673333,13.688 15.8933333,14.2346667 C16.3186667,14.7826667 15.1626667,15.634 14.9353333,15.7993333 C14.706,15.9653333 13.54,16.8013333 13.1506667,16.228 C12.7613333,15.6533333 12.6666667,13.596 13.1033333,13.2786667 Z M12.14,10.9486667 C12.6392654,10.9486667 13.044,11.3534013 13.044,11.8526667 C13.044,12.3519321 12.6392654,12.7566667 12.14,12.7566667 C11.6407346,12.7566667 11.236,12.3519321 11.236,11.8526667 C11.236,11.3534013 11.6407346,10.9486667 12.14,10.9486667 Z M15.4713333,9.08733333 C16.1233333,8.85133333 16.5766667,10.2133333 16.664,10.4826667 C16.752,10.752 17.1853333,12.1186667 16.5186667,12.3113333 C15.8526667,12.504 13.866,11.9593333 13.6993333,11.4446667 C13.5326667,10.932 14.8193333,9.32266667 15.4713333,9.08733333 Z M8.70607202,9.06276338 L8.80733333,9.08733333 C9.45933333,9.322 10.746,10.9306667 10.5793333,11.444 C10.4126667,11.9586667 8.42666667,12.5026667 7.76066667,12.31 C7.094,12.118 7.52866667,10.7493333 7.616,10.482 C7.70333333,10.2126667 8.15533333,8.85 8.80733333,9.08733333 Z M12.1393333,7.194 C12.422,7.194 13.8573333,7.20466667 13.8346667,7.89733333 C13.8113333,8.59133333 12.6806667,10.312 12.1393333,10.312 C11.5993333,10.312 10.4673333,8.59133333 10.4446667,7.89733333 C10.422,7.20466667 11.8566667,7.194 12.1393333,7.194 Z M12.124,17.6513333 C8.958,17.6513333 6.39,15.0833333 6.39,11.9166667 C6.39,8.75066667 8.958,6.18333333 12.124,6.18333333 C15.2906667,6.18333333 17.858,8.75066667 17.858,11.9166667 C17.858,15.0833333 15.2906667,17.6513333 12.124,17.6513333 Z M12.0006667,2 C6.478,2 2,6.47666667 2,12 C2,17.522 6.478,22 12.0006667,22 C17.5226667,22 22,17.522 22,12 C22,6.47666667 17.5226667,2 12.0006667,2 Z" id="path-1"></path>
    </defs>
    <g id="Visual/Icons/Tire-Center" stroke="none" stroke-width="1" fill="none" fill-rule="evenodd">
        <mask id="mask-2" fill="white">
            <use xlink:href="#path-1"></use>
        </mask>
        <use id="🎨-Icon-Color" fill="#333333" xlink:href="#path-1"></use>
    </g>
</svg>