<?xml version="1.0" encoding="UTF-8"?>
<svg width="24px" height="24px" viewBox="0 0 24 24" version="1.1" xmlns="http://www.w3.org/2000/svg" xmlns:xlink="http://www.w3.org/1999/xlink">
    <title>Visual/Icons/Tool Tip</title>
    <defs>
        <path d="M11.8670152,2.00090012 C11.8663485,2.00090012 11.8656819,2.00090012 11.8650152,2.00090012 C6.34296915,2.07556492 1.92626565,6.61278488 2.00093294,12.1353136 C2.07560023,17.6571756 6.6129714,22.0737319 12.1350175,21.9990671 C17.6563968,21.9244023 22.0724337,17.3885156 21.9990997,11.8666536 C21.9257658,6.34412493 17.3897279,1.92756862 11.8670152,2.00090012 Z M13.4530284,17.2818516 C13.3736944,17.4751801 13.2630269,17.6425093 13.1210257,17.7845057 C12.9783578,17.9265022 12.8110231,18.0371661 12.6183548,18.1171641 C12.4250199,18.1964954 12.2203515,18.2364944 12.0050164,18.2364944 C11.7890146,18.2364944 11.5843462,18.1964954 11.3910112,18.1171641 C11.198343,18.0378327 11.0303416,17.9271688 10.8883404,17.7845057 C10.7463392,17.6425093 10.6356716,17.4751801 10.5563376,17.2818516 C10.4770036,17.0885231 10.4370033,16.8845282 10.4370033,16.6685336 C10.4370033,16.452539 10.4770036,16.2485441 10.5563376,16.0552156 C10.6356716,15.8618871 10.7463392,15.694558 10.8883404,15.5525615 C11.0303416,15.4105651 11.198343,15.2999012 11.3910112,15.2205698 C11.5843462,15.1412384 11.7890146,15.1012394 12.0050164,15.1012394 C12.2203515,15.1012394 12.4250199,15.1412384 12.6183548,15.2205698 C12.8110231,15.2999012 12.9783578,15.4105651 13.1210257,15.5525615 C13.2630269,15.694558 13.3736944,15.8618871 13.4530284,16.0552156 C13.5323624,16.2485441 13.5723628,16.4532057 13.5723628,16.6685336 C13.5723628,16.8838616 13.5323624,17.0885231 13.4530284,17.2818516 Z M15.957716,10.0153665 C15.8890488,10.2820265 15.7730478,10.5460199 15.6090464,10.8073467 C15.4443784,11.0693402 15.2283766,11.3333336 14.961041,11.599327 C14.6943721,11.8666536 14.3563693,12.1586463 13.9470326,12.4766384 C13.6850304,12.6812999 13.5096956,12.8799616 13.4190282,13.0732901 C13.3276941,13.2666186 13.2823604,13.4592805 13.2823604,13.652609 L13.2823604,14.1465966 L10.7270057,14.1465966 L10.7270057,13.3966154 C10.7270057,13.0559572 10.7716727,12.7666311 10.8630068,12.5279704 C10.9543409,12.2893097 11.1070089,12.0679819 11.3230107,11.8633204 C11.6410133,11.5566614 11.9330158,11.2900013 12.2003513,11.0626737 C12.4663535,10.835346 12.6970221,10.6226847 12.8896904,10.424023 C13.0830254,10.2253613 13.2336933,10.0380326 13.3416942,9.86203703 C13.4496951,9.68604143 13.5036955,9.50137937 13.5036955,9.30805087 C13.5036955,8.93339356 13.3863612,8.64140086 13.1543593,8.43073946 C12.921024,8.22074471 12.6290216,8.115414 12.2770186,8.115414 C11.7430142,8.115414 11.3370108,8.26274366 11.0590085,8.55806961 C10.7803395,8.85339556 10.6250049,9.21138662 10.5903379,9.63137612 L7.9403158,9.62870952 C8.06565018,8.27474336 8.53432076,7.34010004 9.29499377,6.70944913 C10.0563335,6.07946488 11.0330083,5.76413942 12.2256849,5.76413942 C12.7476892,5.76413942 13.2396933,5.83480432 13.6996972,5.97680078 C14.1590343,6.11879723 14.5657044,6.33212523 14.9177073,6.61545148 C15.2690436,6.89944439 15.5477126,7.25143559 15.752381,7.6714251 C15.9570493,8.0914146 16.05906,8.57406921 16.05906,9.11938892 C16.0597168,9.45004732 16.0263832,9.74803988 15.957716,10.0153665 Z" id="path-1"></path>
    </defs>
    <g id="Visual/Icons/Tool-Tip" stroke="none" stroke-width="1" fill="none" fill-rule="evenodd">
        <mask id="mask-2" fill="white">
            <use xlink:href="#path-1"></use>
        </mask>
        <use id="🎨-Icon-Color" fill="#333333" xlink:href="#path-1"></use>
    </g>
</svg>