<?xml version="1.0" encoding="UTF-8"?>
<svg width="24px" height="24px" viewBox="0 0 24 24" version="1.1" xmlns="http://www.w3.org/2000/svg" xmlns:xlink="http://www.w3.org/1999/xlink">
    <title>Visual/Icons/X</title>
    <defs>
        <path d="M18.0581561,2.00133041 C18.481473,1.98333111 18.8914571,2.14865802 19.1841123,2.45531276 L19.1841123,2.45531276 L21.4720234,4.74322382 C21.7880111,5.03787903 21.9600044,5.45519614 21.944005,5.88717935 C21.9600044,6.31916255 21.7880111,6.73647966 21.4720234,7.03113487 L21.4720234,7.03113487 L16.5688807,12.0062748 L21.5260213,16.8727523 C21.842009,17.1674075 22.0140023,17.5847246 21.9986696,18.0160411 C22.0166689,18.439358 21.851342,18.8493421 21.5446872,19.1419974 L21.5446872,19.1419974 L19.2201109,21.5205716 C18.9294556,21.8318928 18.5194715,22.0018862 18.0941547,21.9912199 C17.6688379,22.0018862 17.2588539,21.8318928 16.9681985,21.5205716 L16.9681985,21.5205716 L11.9563933,16.563431 L7.05325061,21.5205716 C6.7585954,21.8365593 6.34127829,22.0085526 5.90929509,21.9925532 C5.45264617,22.0312184 5.00399695,21.8565585 4.69267572,21.5205716 L4.69267572,21.5205716 L2.45942921,19.2326605 C2.15277446,18.9400052 1.98744755,18.5300212 2.00544685,18.1067043 C1.96544841,17.641389 2.14744133,17.1840735 2.49542781,16.8720856 L2.49542781,16.8720856 L7.43456912,12.0056081 L2.49542781,7.04846753 C2.19877267,6.77114498 2.02811264,6.3838267 2.02344615,5.97717585 C2.00744678,5.54585928 2.18010673,5.12854217 2.49542781,4.83322032 L2.49542781,4.83322032 L4.69267572,2.47264542 C4.98533101,2.16665732 5.39531507,2.00133041 5.81863194,2.01866307 C6.25061515,2.0026637 6.66793226,2.17532365 6.96258747,2.49131137 L6.96258747,2.49131137 L11.95706,7.43045268 L16.9142006,2.47331206 C17.2088558,2.15732435 17.6261729,1.98533104 18.0581561,2.00133041 Z" id="path-1"></path>
    </defs>
    <g id="Visual/Icons/X" stroke="none" stroke-width="1" fill="none" fill-rule="evenodd">
        <mask id="mask-2" fill="white">
            <use xlink:href="#path-1"></use>
        </mask>
        <use id="Combined-🎨-Icon-Color" fill="#333333" xlink:href="#path-1"></use>
    </g>
</svg>