<?xml version="1.0" encoding="UTF-8"?>
<svg width="24px" height="24px" viewBox="0 0 24 24" version="1.1" xmlns="http://www.w3.org/2000/svg" xmlns:xlink="http://www.w3.org/1999/xlink">
    <title>Visual/Icons/Product Zoom/Decrease</title>
    <defs>
        <path d="M7.61413479,8.34478454 L7.61413479,9.93214737 L13.9292389,9.93214737 L13.9292389,8.34478454 L7.61413479,8.34478454 Z M19.983728,20.697014 L15.4916021,14.5582333 C17.0493233,13.2475423 18.0413842,11.3068396 18.0413842,9.13813262 C18.0420474,5.20339285 14.7807136,2 10.7713552,2 C6.76199694,2 3.5,5.20339285 3.5,9.13746594 C3.5,13.0748724 6.76266008,16.2762652 10.7713552,16.2762652 C11.8834449,16.2762652 12.9338623,16.0229272 13.8768506,15.5822523 L18.422691,21.7963678 C18.5772032,22.0070384 18.8669964,22.0637061 19.0692548,21.9217034 L19.8961932,21.339026 C20.0997779,21.1950233 20.1382401,20.9076846 19.983728,20.697014 Z M10.7713552,14.5715669 C7.71824813,14.5715669 5.23610652,12.1341883 5.23610652,9.13746594 C5.23610652,6.14207695 7.71824813,3.70469834 10.7713552,3.70469834 C13.8224729,3.70469834 16.306604,6.14207695 16.306604,9.13746594 C16.306604,12.1341883 13.8231361,14.5715669 10.7713552,14.5715669 Z" id="path-1"></path>
    </defs>
    <g id="Visual/Icons/Product-Zoom/Decrease" stroke="none" stroke-width="1" fill="none" fill-rule="evenodd">
        <mask id="mask-2" fill="white">
            <use xlink:href="#path-1"></use>
        </mask>
        <use id="🎨-Icon-Color" fill="#333333" xlink:href="#path-1"></use>
    </g>
</svg>